<mxfile host="app.diagrams.net" modified="2020-12-31T04:59:55.435Z" agent="5.0 (Macintosh; Intel Mac OS X 10_13_6) AppleWebKit/537.36 (KHTML, like Gecko) Chrome/87.0.4280.88 Safari/537.36" etag="Ohhld-JkikkwUSvRl6WT" version="14.0.0" type="github" pages="2">
  <diagram id="IYIX17RpU93Togu5N2tr" name="第 1 页">
    <mxGraphModel dx="1426" dy="771" grid="1" gridSize="10" guides="1" tooltips="1" connect="1" arrows="0" fold="1" page="1" pageScale="1" pageWidth="827" pageHeight="1169" math="0" shadow="0">
      <root>
        <mxCell id="0" />
        <mxCell id="1" parent="0" />
        <mxCell id="A258h_NDpG_3otoxcBFi-5" value="Cloud Account" style="swimlane;childLayout=stackLayout;horizontal=1;startSize=30;horizontalStack=0;rounded=1;fontSize=14;fontStyle=0;strokeWidth=2;resizeParent=0;resizeLast=1;shadow=0;dashed=0;align=center;" vertex="1" parent="1">
          <mxGeometry x="343" y="210" width="120" height="60" as="geometry" />
        </mxCell>
        <mxCell id="A258h_NDpG_3otoxcBFi-7" value="Business App" style="swimlane;childLayout=stackLayout;horizontal=1;startSize=30;horizontalStack=0;rounded=1;fontSize=14;fontStyle=0;strokeWidth=2;resizeParent=0;resizeLast=1;shadow=0;dashed=0;align=center;" vertex="1" parent="1">
          <mxGeometry x="299" y="580" width="120" height="60" as="geometry" />
        </mxCell>
        <mxCell id="A258h_NDpG_3otoxcBFi-8" value="Fund" style="swimlane;childLayout=stackLayout;horizontal=1;startSize=30;horizontalStack=0;rounded=1;fontSize=14;fontStyle=0;strokeWidth=2;resizeParent=0;resizeLast=1;shadow=0;dashed=0;align=center;" vertex="1" parent="1">
          <mxGeometry x="343" y="320.11" width="120" height="60" as="geometry">
            <mxRectangle x="210" y="390" width="130" height="30" as="alternateBounds" />
          </mxGeometry>
        </mxCell>
        <mxCell id="A258h_NDpG_3otoxcBFi-15" value="Order" style="swimlane;childLayout=stackLayout;horizontal=1;startSize=30;horizontalStack=0;rounded=1;fontSize=14;fontStyle=0;strokeWidth=2;resizeParent=0;resizeLast=1;shadow=0;dashed=0;align=center;" vertex="1" parent="1">
          <mxGeometry x="243" y="70" width="120" height="60" as="geometry">
            <mxRectangle x="210" y="390" width="130" height="30" as="alternateBounds" />
          </mxGeometry>
        </mxCell>
        <mxCell id="A258h_NDpG_3otoxcBFi-18" value="Coupon" style="swimlane;childLayout=stackLayout;horizontal=1;startSize=30;horizontalStack=0;rounded=1;fontSize=14;fontStyle=0;strokeWidth=2;resizeParent=0;resizeLast=1;shadow=0;dashed=0;align=center;" vertex="1" parent="1">
          <mxGeometry x="433" y="70" width="120" height="60" as="geometry">
            <mxRectangle x="210" y="390" width="130" height="30" as="alternateBounds" />
          </mxGeometry>
        </mxCell>
        <mxCell id="A258h_NDpG_3otoxcBFi-23" value="Security Setting" style="swimlane;childLayout=stackLayout;horizontal=1;startSize=30;horizontalStack=0;rounded=1;fontSize=14;fontStyle=0;strokeWidth=2;resizeParent=0;resizeLast=1;shadow=0;dashed=0;align=center;" vertex="1" parent="1">
          <mxGeometry x="123" y="210" width="120" height="60" as="geometry">
            <mxRectangle x="210" y="390" width="130" height="30" as="alternateBounds" />
          </mxGeometry>
        </mxCell>
        <mxCell id="A258h_NDpG_3otoxcBFi-28" value="Authontication Info" style="swimlane;childLayout=stackLayout;horizontal=1;startSize=30;horizontalStack=0;rounded=1;fontSize=14;fontStyle=0;strokeWidth=2;resizeParent=0;resizeLast=1;shadow=0;dashed=0;align=center;" vertex="1" parent="1">
          <mxGeometry x="563" y="210" width="120" height="60" as="geometry">
            <mxRectangle x="210" y="390" width="130" height="30" as="alternateBounds" />
          </mxGeometry>
        </mxCell>
        <mxCell id="A258h_NDpG_3otoxcBFi-31" value="Permission" style="swimlane;childLayout=stackLayout;horizontal=1;startSize=30;horizontalStack=0;rounded=1;fontSize=14;fontStyle=0;strokeWidth=2;resizeParent=0;resizeLast=1;shadow=0;dashed=0;align=center;" vertex="1" parent="1">
          <mxGeometry x="129" y="580" width="120" height="60" as="geometry" />
        </mxCell>
        <mxCell id="A258h_NDpG_3otoxcBFi-34" value="Account Credentials" style="swimlane;childLayout=stackLayout;horizontal=1;startSize=30;horizontalStack=0;rounded=1;fontSize=14;fontStyle=0;strokeWidth=2;resizeParent=0;resizeLast=1;shadow=0;dashed=0;align=center;" vertex="1" parent="1">
          <mxGeometry x="553" y="320.11" width="151" height="60" as="geometry" />
        </mxCell>
        <mxCell id="A258h_NDpG_3otoxcBFi-37" value="Framework Config" style="swimlane;childLayout=stackLayout;horizontal=1;startSize=30;horizontalStack=0;rounded=1;fontSize=14;fontStyle=0;strokeWidth=2;resizeParent=0;resizeLast=1;shadow=0;dashed=0;align=center;" vertex="1" parent="1">
          <mxGeometry x="294" y="690" width="130" height="60" as="geometry" />
        </mxCell>
        <mxCell id="A258h_NDpG_3otoxcBFi-44" value="Resource" style="swimlane;childLayout=stackLayout;horizontal=1;startSize=30;horizontalStack=0;rounded=1;fontSize=14;fontStyle=0;strokeWidth=2;resizeParent=0;resizeLast=1;shadow=0;dashed=0;align=center;" vertex="1" parent="1">
          <mxGeometry x="294" y="470" width="130" height="60" as="geometry" />
        </mxCell>
        <mxCell id="A258h_NDpG_3otoxcBFi-61" value="Business App" style="swimlane;childLayout=stackLayout;horizontal=1;startSize=30;horizontalStack=0;rounded=1;fontSize=14;fontStyle=0;strokeWidth=2;resizeParent=0;resizeLast=1;shadow=0;dashed=0;align=center;" vertex="1" parent="1">
          <mxGeometry x="123" y="320.11" width="120" height="60" as="geometry">
            <mxRectangle x="210" y="390" width="130" height="30" as="alternateBounds" />
          </mxGeometry>
        </mxCell>
        <mxCell id="A258h_NDpG_3otoxcBFi-66" value="Version" style="swimlane;childLayout=stackLayout;horizontal=1;startSize=30;horizontalStack=0;rounded=1;fontSize=14;fontStyle=0;strokeWidth=2;resizeParent=0;resizeLast=1;shadow=0;dashed=0;align=center;" vertex="1" parent="1">
          <mxGeometry x="489" y="470" width="120" height="60" as="geometry" />
        </mxCell>
        <mxCell id="A258h_NDpG_3otoxcBFi-71" value="Fee Rule" style="swimlane;childLayout=stackLayout;horizontal=1;startSize=30;horizontalStack=0;rounded=1;fontSize=14;fontStyle=0;strokeWidth=2;resizeParent=0;resizeLast=1;shadow=0;dashed=0;align=center;" vertex="1" parent="1">
          <mxGeometry x="490" y="690" width="120" height="60" as="geometry" />
        </mxCell>
        <mxCell id="A258h_NDpG_3otoxcBFi-74" value="Function" style="swimlane;childLayout=stackLayout;horizontal=1;startSize=30;horizontalStack=0;rounded=1;fontSize=14;fontStyle=0;strokeWidth=2;resizeParent=0;resizeLast=1;shadow=0;dashed=0;align=center;" vertex="1" parent="1">
          <mxGeometry x="129" y="470" width="120" height="60" as="geometry" />
        </mxCell>
        <mxCell id="Qw2MKtvuWThIbptTe2I7-36" value="" style="edgeStyle=orthogonalEdgeStyle;fontSize=12;html=1;endArrow=ERzeroToMany;startArrow=ERmandOne;exitX=0.5;exitY=0;exitDx=0;exitDy=0;entryX=0.5;entryY=1;entryDx=0;entryDy=0;rounded=0;" edge="1" parent="1" source="A258h_NDpG_3otoxcBFi-5" target="A258h_NDpG_3otoxcBFi-18">
          <mxGeometry width="100" height="100" relative="1" as="geometry">
            <mxPoint x="563" y="220" as="sourcePoint" />
            <mxPoint x="663" y="120" as="targetPoint" />
          </mxGeometry>
        </mxCell>
        <mxCell id="Qw2MKtvuWThIbptTe2I7-37" value="" style="edgeStyle=orthogonalEdgeStyle;fontSize=12;html=1;endArrow=ERzeroToMany;startArrow=ERmandOne;exitX=0.5;exitY=0;exitDx=0;exitDy=0;entryX=0.5;entryY=1;entryDx=0;entryDy=0;rounded=0;" edge="1" parent="1" source="A258h_NDpG_3otoxcBFi-5" target="A258h_NDpG_3otoxcBFi-15">
          <mxGeometry width="100" height="100" relative="1" as="geometry">
            <mxPoint x="297" y="160" as="sourcePoint" />
            <mxPoint x="387" y="80" as="targetPoint" />
          </mxGeometry>
        </mxCell>
        <mxCell id="Qw2MKtvuWThIbptTe2I7-42" value="" style="fontSize=12;html=1;endArrow=ERzeroToMany;startArrow=ERmandOne;exitX=1;exitY=0.5;exitDx=0;exitDy=0;entryX=0;entryY=0.5;entryDx=0;entryDy=0;edgeStyle=orthogonalEdgeStyle;rounded=0;" edge="1" parent="1" source="A258h_NDpG_3otoxcBFi-7" target="A258h_NDpG_3otoxcBFi-66">
          <mxGeometry width="100" height="100" relative="1" as="geometry">
            <mxPoint x="655" y="405" as="sourcePoint" />
            <mxPoint x="755" y="305" as="targetPoint" />
          </mxGeometry>
        </mxCell>
        <mxCell id="Qw2MKtvuWThIbptTe2I7-43" value="" style="fontSize=12;html=1;endArrow=ERzeroToMany;startArrow=ERmandOne;exitX=0.5;exitY=1;exitDx=0;exitDy=0;rounded=0;edgeStyle=orthogonalEdgeStyle;" edge="1" parent="1" source="A258h_NDpG_3otoxcBFi-5" target="A258h_NDpG_3otoxcBFi-61">
          <mxGeometry width="100" height="100" relative="1" as="geometry">
            <mxPoint x="607" y="480.11" as="sourcePoint" />
            <mxPoint x="183" y="320" as="targetPoint" />
          </mxGeometry>
        </mxCell>
        <mxCell id="Qw2MKtvuWThIbptTe2I7-50" value="" style="fontSize=12;html=1;endArrow=ERzeroToMany;startArrow=ERmandOne;exitX=0.5;exitY=0;exitDx=0;exitDy=0;entryX=0.5;entryY=1;entryDx=0;entryDy=0;" edge="1" parent="1" source="A258h_NDpG_3otoxcBFi-7" target="A258h_NDpG_3otoxcBFi-44">
          <mxGeometry width="100" height="100" relative="1" as="geometry">
            <mxPoint x="745" y="50" as="sourcePoint" />
            <mxPoint x="845" y="-50" as="targetPoint" />
          </mxGeometry>
        </mxCell>
        <mxCell id="Qw2MKtvuWThIbptTe2I7-56" value="" style="edgeStyle=orthogonalEdgeStyle;fontSize=12;html=1;endArrow=ERoneToMany;startArrow=ERmandOne;rounded=0;exitX=0;exitY=0.5;exitDx=0;exitDy=0;entryX=1;entryY=0.5;entryDx=0;entryDy=0;" edge="1" parent="1" source="A258h_NDpG_3otoxcBFi-7" target="A258h_NDpG_3otoxcBFi-31">
          <mxGeometry width="100" height="100" relative="1" as="geometry">
            <mxPoint x="755" y="210" as="sourcePoint" />
            <mxPoint x="855" y="110" as="targetPoint" />
          </mxGeometry>
        </mxCell>
        <mxCell id="Qw2MKtvuWThIbptTe2I7-57" value="" style="edgeStyle=orthogonalEdgeStyle;fontSize=12;html=1;endArrow=ERmandOne;startArrow=ERmandOne;rounded=0;exitX=0.5;exitY=1;exitDx=0;exitDy=0;entryX=0.5;entryY=0;entryDx=0;entryDy=0;" edge="1" parent="1" source="A258h_NDpG_3otoxcBFi-7" target="A258h_NDpG_3otoxcBFi-37">
          <mxGeometry width="100" height="100" relative="1" as="geometry">
            <mxPoint x="519" y="490" as="sourcePoint" />
            <mxPoint x="619" y="390" as="targetPoint" />
          </mxGeometry>
        </mxCell>
        <mxCell id="Qw2MKtvuWThIbptTe2I7-59" value="" style="edgeStyle=orthogonalEdgeStyle;fontSize=12;html=1;endArrow=ERzeroToMany;startArrow=ERmandOne;exitX=0.5;exitY=1;exitDx=0;exitDy=0;entryX=0.5;entryY=0;entryDx=0;entryDy=0;rounded=0;" edge="1" parent="1" source="A258h_NDpG_3otoxcBFi-74" target="A258h_NDpG_3otoxcBFi-31">
          <mxGeometry width="100" height="100" relative="1" as="geometry">
            <mxPoint x="519" y="420" as="sourcePoint" />
            <mxPoint x="609" y="340" as="targetPoint" />
          </mxGeometry>
        </mxCell>
        <mxCell id="Qw2MKtvuWThIbptTe2I7-60" value="" style="edgeStyle=orthogonalEdgeStyle;fontSize=12;html=1;endArrow=ERzeroToMany;startArrow=ERmandOne;entryX=0.5;entryY=0;entryDx=0;entryDy=0;rounded=0;exitX=0.5;exitY=1;exitDx=0;exitDy=0;" edge="1" parent="1" source="A258h_NDpG_3otoxcBFi-7" target="A258h_NDpG_3otoxcBFi-71">
          <mxGeometry width="100" height="100" relative="1" as="geometry">
            <mxPoint x="395" y="670" as="sourcePoint" />
            <mxPoint x="555" y="340" as="targetPoint" />
          </mxGeometry>
        </mxCell>
        <mxCell id="Qw2MKtvuWThIbptTe2I7-64" value="" style="edgeStyle=orthogonalEdgeStyle;fontSize=12;html=1;endArrow=ERzeroToMany;startArrow=ERmandOne;entryX=0.5;entryY=0;entryDx=0;entryDy=0;rounded=0;exitX=0.5;exitY=0;exitDx=0;exitDy=0;" edge="1" parent="1" source="A258h_NDpG_3otoxcBFi-66" target="A258h_NDpG_3otoxcBFi-44">
          <mxGeometry width="100" height="100" relative="1" as="geometry">
            <mxPoint x="650" y="440" as="sourcePoint" />
            <mxPoint x="665" y="440" as="targetPoint" />
            <Array as="points">
              <mxPoint x="549" y="440" />
              <mxPoint x="359" y="440" />
            </Array>
          </mxGeometry>
        </mxCell>
        <mxCell id="Qw2MKtvuWThIbptTe2I7-65" value="" style="edgeStyle=orthogonalEdgeStyle;fontSize=12;html=1;endArrow=ERzeroToMany;startArrow=ERmandOne;entryX=0.5;entryY=0;entryDx=0;entryDy=0;rounded=0;exitX=0.5;exitY=0;exitDx=0;exitDy=0;" edge="1" parent="1" source="A258h_NDpG_3otoxcBFi-66" target="A258h_NDpG_3otoxcBFi-74">
          <mxGeometry width="100" height="100" relative="1" as="geometry">
            <mxPoint x="510" y="400" as="sourcePoint" />
            <mxPoint x="619" y="350" as="targetPoint" />
            <Array as="points">
              <mxPoint x="549" y="440" />
              <mxPoint x="189" y="440" />
            </Array>
          </mxGeometry>
        </mxCell>
        <mxCell id="Qw2MKtvuWThIbptTe2I7-70" value="" style="edgeStyle=orthogonalEdgeStyle;fontSize=12;html=1;endArrow=ERzeroToOne;startArrow=ERmandOne;rounded=0;exitX=0;exitY=0.5;exitDx=0;exitDy=0;entryX=1;entryY=0.5;entryDx=0;entryDy=0;" edge="1" parent="1" source="A258h_NDpG_3otoxcBFi-5" target="A258h_NDpG_3otoxcBFi-23">
          <mxGeometry width="100" height="100" relative="1" as="geometry">
            <mxPoint x="1013" y="400" as="sourcePoint" />
            <mxPoint x="1113" y="300" as="targetPoint" />
          </mxGeometry>
        </mxCell>
        <mxCell id="Qw2MKtvuWThIbptTe2I7-71" value="" style="edgeStyle=orthogonalEdgeStyle;fontSize=12;html=1;endArrow=ERzeroToOne;startArrow=ERmandOne;rounded=0;exitX=1;exitY=0.5;exitDx=0;exitDy=0;" edge="1" parent="1" source="A258h_NDpG_3otoxcBFi-5">
          <mxGeometry width="100" height="100" relative="1" as="geometry">
            <mxPoint x="973" y="370" as="sourcePoint" />
            <mxPoint x="563" y="240" as="targetPoint" />
          </mxGeometry>
        </mxCell>
        <mxCell id="Qw2MKtvuWThIbptTe2I7-78" value="Role" style="swimlane;childLayout=stackLayout;horizontal=1;startSize=30;horizontalStack=0;rounded=1;fontSize=14;fontStyle=0;strokeWidth=2;resizeParent=0;resizeLast=1;shadow=0;dashed=0;align=center;" vertex="1" parent="1">
          <mxGeometry x="129" y="690" width="120" height="60" as="geometry" />
        </mxCell>
        <mxCell id="Qw2MKtvuWThIbptTe2I7-79" value="" style="fontSize=12;html=1;endArrow=ERzeroToMany;startArrow=ERmandOne;exitX=0.5;exitY=1;exitDx=0;exitDy=0;edgeStyle=orthogonalEdgeStyle;rounded=0;" edge="1" parent="1" source="A258h_NDpG_3otoxcBFi-7" target="Qw2MKtvuWThIbptTe2I7-78">
          <mxGeometry width="100" height="100" relative="1" as="geometry">
            <mxPoint x="565" y="790" as="sourcePoint" />
            <mxPoint x="665" y="790" as="targetPoint" />
          </mxGeometry>
        </mxCell>
        <mxCell id="Qw2MKtvuWThIbptTe2I7-80" value="" style="edgeStyle=orthogonalEdgeStyle;fontSize=12;html=1;endArrow=ERzeroToOne;startArrow=ERmandOne;rounded=0;exitX=0.5;exitY=1;exitDx=0;exitDy=0;entryX=0.5;entryY=0;entryDx=0;entryDy=0;" edge="1" parent="1" source="A258h_NDpG_3otoxcBFi-5" target="A258h_NDpG_3otoxcBFi-8">
          <mxGeometry width="100" height="100" relative="1" as="geometry">
            <mxPoint x="473" y="250" as="sourcePoint" />
            <mxPoint x="573" y="250" as="targetPoint" />
          </mxGeometry>
        </mxCell>
        <mxCell id="zjfae4b-PSYvWiLO06Wc-3" value="Internal App" style="swimlane;childLayout=stackLayout;horizontal=1;startSize=30;horizontalStack=0;rounded=1;fontSize=14;fontStyle=0;strokeWidth=2;resizeParent=0;resizeLast=1;shadow=0;dashed=0;align=center;" vertex="1" parent="1">
          <mxGeometry x="336" y="1279" width="120" height="60" as="geometry" />
        </mxCell>
        <mxCell id="zjfae4b-PSYvWiLO06Wc-4" value="Permission" style="swimlane;childLayout=stackLayout;horizontal=1;startSize=30;horizontalStack=0;rounded=1;fontSize=14;fontStyle=0;strokeWidth=2;resizeParent=0;resizeLast=1;shadow=0;dashed=0;align=center;" vertex="1" parent="1">
          <mxGeometry x="150" y="1279" width="120" height="60" as="geometry" />
        </mxCell>
        <mxCell id="zjfae4b-PSYvWiLO06Wc-12" value="" style="edgeStyle=orthogonalEdgeStyle;fontSize=12;html=1;endArrow=ERoneToMany;startArrow=ERmandOne;rounded=0;exitX=0;exitY=0.5;exitDx=0;exitDy=0;entryX=1;entryY=0.5;entryDx=0;entryDy=0;" edge="1" parent="1" source="zjfae4b-PSYvWiLO06Wc-3" target="zjfae4b-PSYvWiLO06Wc-4">
          <mxGeometry width="100" height="100" relative="1" as="geometry">
            <mxPoint x="776" y="909" as="sourcePoint" />
            <mxPoint x="876" y="809" as="targetPoint" />
          </mxGeometry>
        </mxCell>
        <mxCell id="zjfae4b-PSYvWiLO06Wc-18" value="Role" style="swimlane;childLayout=stackLayout;horizontal=1;startSize=30;horizontalStack=0;rounded=1;fontSize=14;fontStyle=0;strokeWidth=2;resizeParent=0;resizeLast=1;shadow=0;dashed=0;align=center;" vertex="1" parent="1">
          <mxGeometry x="336" y="1399" width="120" height="60" as="geometry" />
        </mxCell>
        <mxCell id="zjfae4b-PSYvWiLO06Wc-19" value="" style="fontSize=12;html=1;endArrow=ERzeroToMany;startArrow=ERmandOne;exitX=0.5;exitY=1;exitDx=0;exitDy=0;edgeStyle=orthogonalEdgeStyle;rounded=0;" edge="1" parent="1" source="zjfae4b-PSYvWiLO06Wc-3" target="zjfae4b-PSYvWiLO06Wc-18">
          <mxGeometry width="100" height="100" relative="1" as="geometry">
            <mxPoint x="586" y="1489" as="sourcePoint" />
            <mxPoint x="686" y="1489" as="targetPoint" />
          </mxGeometry>
        </mxCell>
        <mxCell id="zjfae4b-PSYvWiLO06Wc-20" value="" style="edgeStyle=orthogonalEdgeStyle;fontSize=12;html=1;endArrow=ERoneToMany;startArrow=ERmandOne;rounded=0;exitX=0;exitY=0.5;exitDx=0;exitDy=0;entryX=0.5;entryY=1;entryDx=0;entryDy=0;" edge="1" parent="1" source="zjfae4b-PSYvWiLO06Wc-18" target="zjfae4b-PSYvWiLO06Wc-4">
          <mxGeometry width="100" height="100" relative="1" as="geometry">
            <mxPoint x="250" y="1509" as="sourcePoint" />
            <mxPoint x="200" y="1509" as="targetPoint" />
            <Array as="points">
              <mxPoint x="210" y="1429" />
            </Array>
          </mxGeometry>
        </mxCell>
        <mxCell id="zjfae4b-PSYvWiLO06Wc-21" value="Developer Account" style="swimlane;childLayout=stackLayout;horizontal=1;startSize=30;horizontalStack=0;rounded=1;fontSize=14;fontStyle=0;strokeWidth=2;resizeParent=0;resizeLast=1;shadow=0;dashed=0;align=center;" vertex="1" parent="1">
          <mxGeometry x="526" y="1279" width="130" height="60" as="geometry" />
        </mxCell>
        <mxCell id="zjfae4b-PSYvWiLO06Wc-22" value="" style="fontSize=12;html=1;endArrow=ERzeroToMany;startArrow=ERmandOne;exitX=0;exitY=0.5;exitDx=0;exitDy=0;entryX=1;entryY=0.5;entryDx=0;entryDy=0;" edge="1" parent="1" source="zjfae4b-PSYvWiLO06Wc-21" target="zjfae4b-PSYvWiLO06Wc-3">
          <mxGeometry width="100" height="100" relative="1" as="geometry">
            <mxPoint x="506" y="1189" as="sourcePoint" />
            <mxPoint x="606" y="1189" as="targetPoint" />
          </mxGeometry>
        </mxCell>
        <mxCell id="zjfae4b-PSYvWiLO06Wc-26" value="Document" style="swimlane;childLayout=stackLayout;horizontal=1;startSize=30;horizontalStack=0;rounded=1;fontSize=14;fontStyle=0;strokeWidth=2;resizeParent=0;resizeLast=1;shadow=0;dashed=0;align=center;" vertex="1" parent="1">
          <mxGeometry x="489" y="580" width="120" height="60" as="geometry" />
        </mxCell>
        <mxCell id="zjfae4b-PSYvWiLO06Wc-27" value="" style="fontSize=12;html=1;endArrow=ERmandOne;startArrow=ERmandOne;entryX=0;entryY=0.5;entryDx=0;entryDy=0;exitX=1;exitY=0.5;exitDx=0;exitDy=0;" edge="1" parent="1" source="A258h_NDpG_3otoxcBFi-7" target="zjfae4b-PSYvWiLO06Wc-26">
          <mxGeometry width="100" height="100" relative="1" as="geometry">
            <mxPoint x="499" y="610" as="sourcePoint" />
            <mxPoint x="499" y="560" as="targetPoint" />
          </mxGeometry>
        </mxCell>
        <mxCell id="zjfae4b-PSYvWiLO06Wc-28" value="" style="edgeStyle=orthogonalEdgeStyle;fontSize=12;html=1;endArrow=ERzeroToOne;startArrow=ERmandOne;exitX=0.5;exitY=1;exitDx=0;exitDy=0;entryX=0.5;entryY=0;entryDx=0;entryDy=0;rounded=0;" edge="1" parent="1" source="A258h_NDpG_3otoxcBFi-5" target="A258h_NDpG_3otoxcBFi-34">
          <mxGeometry width="100" height="100" relative="1" as="geometry">
            <mxPoint x="273" y="890" as="sourcePoint" />
            <mxPoint x="373" y="790" as="targetPoint" />
          </mxGeometry>
        </mxCell>
        <mxCell id="zjfae4b-PSYvWiLO06Wc-29" value="" style="edgeStyle=orthogonalEdgeStyle;fontSize=12;html=1;endArrow=ERoneToMany;startArrow=ERmandOne;exitX=0;exitY=0.5;exitDx=0;exitDy=0;entryX=0;entryY=0.5;entryDx=0;entryDy=0;rounded=0;" edge="1" parent="1" source="Qw2MKtvuWThIbptTe2I7-78" target="A258h_NDpG_3otoxcBFi-31">
          <mxGeometry width="100" height="100" relative="1" as="geometry">
            <mxPoint x="-10" y="740" as="sourcePoint" />
            <mxPoint x="90" y="640" as="targetPoint" />
            <Array as="points">
              <mxPoint x="80" y="720" />
              <mxPoint x="80" y="610" />
            </Array>
          </mxGeometry>
        </mxCell>
        <mxCell id="zjfae4b-PSYvWiLO06Wc-30" value="App Credentials" style="swimlane;childLayout=stackLayout;horizontal=1;startSize=30;horizontalStack=0;rounded=1;fontSize=14;fontStyle=0;strokeWidth=2;resizeParent=0;resizeLast=1;shadow=0;dashed=0;align=center;" vertex="1" parent="1">
          <mxGeometry x="650" y="690" width="151" height="60" as="geometry" />
        </mxCell>
        <mxCell id="zjfae4b-PSYvWiLO06Wc-31" value="" style="edgeStyle=orthogonalEdgeStyle;fontSize=12;html=1;endArrow=ERmandOne;startArrow=ERmandOne;rounded=0;exitX=0.5;exitY=1;exitDx=0;exitDy=0;entryX=0.5;entryY=0;entryDx=0;entryDy=0;" edge="1" parent="1" source="A258h_NDpG_3otoxcBFi-7" target="zjfae4b-PSYvWiLO06Wc-30">
          <mxGeometry width="100" height="100" relative="1" as="geometry">
            <mxPoint x="369" y="650" as="sourcePoint" />
            <mxPoint x="369" y="700" as="targetPoint" />
          </mxGeometry>
        </mxCell>
        <mxCell id="zjfae4b-PSYvWiLO06Wc-32" value="App Credentials" style="swimlane;childLayout=stackLayout;horizontal=1;startSize=30;horizontalStack=0;rounded=1;fontSize=14;fontStyle=0;strokeWidth=2;resizeParent=0;resizeLast=1;shadow=0;dashed=0;align=center;" vertex="1" parent="1">
          <mxGeometry x="320.5" y="1169" width="151" height="60" as="geometry" />
        </mxCell>
        <mxCell id="zjfae4b-PSYvWiLO06Wc-33" value="" style="edgeStyle=orthogonalEdgeStyle;fontSize=12;html=1;endArrow=ERmandOne;startArrow=ERmandOne;rounded=0;exitX=0.5;exitY=1;exitDx=0;exitDy=0;" edge="1" parent="1" source="zjfae4b-PSYvWiLO06Wc-32" target="zjfae4b-PSYvWiLO06Wc-3">
          <mxGeometry width="100" height="100" relative="1" as="geometry">
            <mxPoint x="399" y="1009" as="sourcePoint" />
            <mxPoint x="765.5" y="1059" as="targetPoint" />
          </mxGeometry>
        </mxCell>
        <mxCell id="aa10qJJ51_H6t49YqkEk-1" value="Bussiness App" style="swimlane;childLayout=stackLayout;horizontal=1;startSize=30;horizontalStack=0;rounded=1;fontSize=14;fontStyle=0;strokeWidth=2;resizeParent=0;resizeLast=1;shadow=0;dashed=0;align=center;" vertex="1" parent="1">
          <mxGeometry x="347" y="910" width="120" height="60" as="geometry" />
        </mxCell>
        <mxCell id="aa10qJJ51_H6t49YqkEk-2" value="Permission" style="swimlane;childLayout=stackLayout;horizontal=1;startSize=30;horizontalStack=0;rounded=1;fontSize=14;fontStyle=0;strokeWidth=2;resizeParent=0;resizeLast=1;shadow=0;dashed=0;align=center;" vertex="1" parent="1">
          <mxGeometry x="161" y="910" width="120" height="60" as="geometry" />
        </mxCell>
        <mxCell id="aa10qJJ51_H6t49YqkEk-3" value="" style="edgeStyle=orthogonalEdgeStyle;fontSize=12;html=1;endArrow=ERoneToMany;startArrow=ERmandOne;rounded=0;exitX=0;exitY=0.5;exitDx=0;exitDy=0;entryX=1;entryY=0.5;entryDx=0;entryDy=0;" edge="1" parent="1" source="aa10qJJ51_H6t49YqkEk-1" target="aa10qJJ51_H6t49YqkEk-2">
          <mxGeometry width="100" height="100" relative="1" as="geometry">
            <mxPoint x="787" y="540" as="sourcePoint" />
            <mxPoint x="887" y="440" as="targetPoint" />
          </mxGeometry>
        </mxCell>
        <mxCell id="aa10qJJ51_H6t49YqkEk-4" value="Role" style="swimlane;childLayout=stackLayout;horizontal=1;startSize=30;horizontalStack=0;rounded=1;fontSize=14;fontStyle=0;strokeWidth=2;resizeParent=0;resizeLast=1;shadow=0;dashed=0;align=center;" vertex="1" parent="1">
          <mxGeometry x="347" y="1030" width="120" height="60" as="geometry" />
        </mxCell>
        <mxCell id="aa10qJJ51_H6t49YqkEk-5" value="" style="fontSize=12;html=1;endArrow=ERzeroToMany;startArrow=ERmandOne;exitX=0.5;exitY=1;exitDx=0;exitDy=0;edgeStyle=orthogonalEdgeStyle;rounded=0;" edge="1" parent="1" source="aa10qJJ51_H6t49YqkEk-1" target="aa10qJJ51_H6t49YqkEk-4">
          <mxGeometry width="100" height="100" relative="1" as="geometry">
            <mxPoint x="597" y="1120" as="sourcePoint" />
            <mxPoint x="697" y="1120" as="targetPoint" />
          </mxGeometry>
        </mxCell>
        <mxCell id="aa10qJJ51_H6t49YqkEk-6" value="" style="edgeStyle=orthogonalEdgeStyle;fontSize=12;html=1;endArrow=ERoneToMany;startArrow=ERmandOne;rounded=0;exitX=0;exitY=0.5;exitDx=0;exitDy=0;entryX=0.5;entryY=1;entryDx=0;entryDy=0;" edge="1" parent="1" source="aa10qJJ51_H6t49YqkEk-4" target="aa10qJJ51_H6t49YqkEk-2">
          <mxGeometry width="100" height="100" relative="1" as="geometry">
            <mxPoint x="261" y="1140" as="sourcePoint" />
            <mxPoint x="211" y="1140" as="targetPoint" />
            <Array as="points">
              <mxPoint x="221" y="1060" />
            </Array>
          </mxGeometry>
        </mxCell>
        <mxCell id="aa10qJJ51_H6t49YqkEk-7" value="App Account" style="swimlane;childLayout=stackLayout;horizontal=1;startSize=30;horizontalStack=0;rounded=1;fontSize=14;fontStyle=0;strokeWidth=2;resizeParent=0;resizeLast=1;shadow=0;dashed=0;align=center;" vertex="1" parent="1">
          <mxGeometry x="537" y="910" width="130" height="60" as="geometry" />
        </mxCell>
        <mxCell id="aa10qJJ51_H6t49YqkEk-8" value="" style="fontSize=12;html=1;endArrow=ERzeroToMany;startArrow=ERmandOne;exitX=0;exitY=0.5;exitDx=0;exitDy=0;entryX=1;entryY=0.5;entryDx=0;entryDy=0;" edge="1" parent="1" source="aa10qJJ51_H6t49YqkEk-7" target="aa10qJJ51_H6t49YqkEk-1">
          <mxGeometry width="100" height="100" relative="1" as="geometry">
            <mxPoint x="517" y="820" as="sourcePoint" />
            <mxPoint x="617" y="820" as="targetPoint" />
          </mxGeometry>
        </mxCell>
        <mxCell id="aa10qJJ51_H6t49YqkEk-9" value="App Credentials" style="swimlane;childLayout=stackLayout;horizontal=1;startSize=30;horizontalStack=0;rounded=1;fontSize=14;fontStyle=0;strokeWidth=2;resizeParent=0;resizeLast=1;shadow=0;dashed=0;align=center;" vertex="1" parent="1">
          <mxGeometry x="331.5" y="800" width="151" height="60" as="geometry" />
        </mxCell>
        <mxCell id="aa10qJJ51_H6t49YqkEk-10" value="" style="edgeStyle=orthogonalEdgeStyle;fontSize=12;html=1;endArrow=ERmandOne;startArrow=ERmandOne;rounded=0;exitX=0.5;exitY=1;exitDx=0;exitDy=0;" edge="1" parent="1" source="aa10qJJ51_H6t49YqkEk-9" target="aa10qJJ51_H6t49YqkEk-1">
          <mxGeometry width="100" height="100" relative="1" as="geometry">
            <mxPoint x="410" y="640" as="sourcePoint" />
            <mxPoint x="776.5" y="690" as="targetPoint" />
          </mxGeometry>
        </mxCell>
        <mxCell id="uR6iDtGUnG2NUxjB-Ul_-1" value="零售云账号" style="rounded=0;whiteSpace=wrap;html=1;" vertex="1" parent="1">
          <mxGeometry x="850" y="240" width="100" height="50" as="geometry" />
        </mxCell>
        <mxCell id="uR6iDtGUnG2NUxjB-Ul_-2" value="开发者账号" style="rounded=0;whiteSpace=wrap;html=1;" vertex="1" parent="1">
          <mxGeometry x="1260" y="240" width="100" height="50" as="geometry" />
        </mxCell>
        <mxCell id="uR6iDtGUnG2NUxjB-Ul_-3" value="商业应用账号" style="rounded=0;whiteSpace=wrap;html=1;" vertex="1" parent="1">
          <mxGeometry x="1050" y="240" width="100" height="50" as="geometry" />
        </mxCell>
        <mxCell id="uR6iDtGUnG2NUxjB-Ul_-4" value="" style="endArrow=none;dashed=1;html=1;" edge="1" parent="1">
          <mxGeometry width="50" height="50" relative="1" as="geometry">
            <mxPoint x="1007" y="580" as="sourcePoint" />
            <mxPoint x="1007" y="90.00000000000001" as="targetPoint" />
          </mxGeometry>
        </mxCell>
        <mxCell id="uR6iDtGUnG2NUxjB-Ul_-5" value="" style="endArrow=none;dashed=1;html=1;" edge="1" parent="1">
          <mxGeometry width="50" height="50" relative="1" as="geometry">
            <mxPoint x="1200" y="580" as="sourcePoint" />
            <mxPoint x="1200" y="90.00000000000001" as="targetPoint" />
          </mxGeometry>
        </mxCell>
        <mxCell id="uR6iDtGUnG2NUxjB-Ul_-6" value="" style="endArrow=none;dashed=1;html=1;" edge="1" parent="1">
          <mxGeometry width="50" height="50" relative="1" as="geometry">
            <mxPoint x="1400" y="580" as="sourcePoint" />
            <mxPoint x="1400" y="90.00000000000001" as="targetPoint" />
          </mxGeometry>
        </mxCell>
        <mxCell id="uR6iDtGUnG2NUxjB-Ul_-7" value="零售云租户&lt;br&gt;用户门户、控制台" style="text;html=1;strokeColor=none;fillColor=none;align=center;verticalAlign=middle;whiteSpace=wrap;rounded=0;" vertex="1" parent="1">
          <mxGeometry x="853.5" y="140" width="106.5" height="20" as="geometry" />
        </mxCell>
        <mxCell id="uR6iDtGUnG2NUxjB-Ul_-8" value="每个应用一个租户" style="text;html=1;strokeColor=none;fillColor=none;align=center;verticalAlign=middle;whiteSpace=wrap;rounded=0;" vertex="1" parent="1">
          <mxGeometry x="1053" y="140" width="107" height="20" as="geometry" />
        </mxCell>
        <mxCell id="uR6iDtGUnG2NUxjB-Ul_-9" value="开发者租户" style="text;html=1;strokeColor=none;fillColor=none;align=center;verticalAlign=middle;whiteSpace=wrap;rounded=0;" vertex="1" parent="1">
          <mxGeometry x="1270" y="140" width="80" height="20" as="geometry" />
        </mxCell>
        <mxCell id="uR6iDtGUnG2NUxjB-Ul_-10" value="" style="endArrow=none;dashed=1;html=1;" edge="1" parent="1">
          <mxGeometry width="50" height="50" relative="1" as="geometry">
            <mxPoint x="830" y="590" as="sourcePoint" />
            <mxPoint x="830" y="70" as="targetPoint" />
          </mxGeometry>
        </mxCell>
      </root>
    </mxGraphModel>
  </diagram>
  <diagram id="cXg32cSVJEyeUhCVyxiW" name="第 2 页">
    <mxGraphModel dx="1426" dy="771" grid="1" gridSize="10" guides="1" tooltips="1" connect="1" arrows="1" fold="1" page="1" pageScale="1" pageWidth="827" pageHeight="1169" math="0" shadow="0">
      <root>
        <mxCell id="U0HshNzUBzlzaWFqLwYB-0" />
        <mxCell id="U0HshNzUBzlzaWFqLwYB-1" parent="U0HshNzUBzlzaWFqLwYB-0" />
        <mxCell id="uL12IbZPGIwRWGG_sodD-0" value="零售云账号" style="rounded=0;whiteSpace=wrap;html=1;" vertex="1" parent="U0HshNzUBzlzaWFqLwYB-1">
          <mxGeometry x="123" y="510" width="100" height="50" as="geometry" />
        </mxCell>
        <mxCell id="uL12IbZPGIwRWGG_sodD-1" value="开发者账号" style="rounded=0;whiteSpace=wrap;html=1;" vertex="1" parent="U0HshNzUBzlzaWFqLwYB-1">
          <mxGeometry x="533" y="510" width="100" height="50" as="geometry" />
        </mxCell>
        <mxCell id="uL12IbZPGIwRWGG_sodD-2" value="应用自有账号" style="rounded=0;whiteSpace=wrap;html=1;" vertex="1" parent="U0HshNzUBzlzaWFqLwYB-1">
          <mxGeometry x="323" y="510" width="100" height="50" as="geometry" />
        </mxCell>
        <mxCell id="uL12IbZPGIwRWGG_sodD-3" value="" style="endArrow=none;dashed=1;html=1;" edge="1" parent="U0HshNzUBzlzaWFqLwYB-1">
          <mxGeometry width="50" height="50" relative="1" as="geometry">
            <mxPoint x="280" y="850" as="sourcePoint" />
            <mxPoint x="280" y="360" as="targetPoint" />
          </mxGeometry>
        </mxCell>
        <mxCell id="uL12IbZPGIwRWGG_sodD-4" value="" style="endArrow=none;dashed=1;html=1;" edge="1" parent="U0HshNzUBzlzaWFqLwYB-1">
          <mxGeometry width="50" height="50" relative="1" as="geometry">
            <mxPoint x="473" y="850" as="sourcePoint" />
            <mxPoint x="473" y="360" as="targetPoint" />
          </mxGeometry>
        </mxCell>
        <mxCell id="uL12IbZPGIwRWGG_sodD-5" value="" style="endArrow=none;dashed=1;html=1;" edge="1" parent="U0HshNzUBzlzaWFqLwYB-1">
          <mxGeometry width="50" height="50" relative="1" as="geometry">
            <mxPoint x="673" y="850" as="sourcePoint" />
            <mxPoint x="673" y="360" as="targetPoint" />
          </mxGeometry>
        </mxCell>
        <mxCell id="uL12IbZPGIwRWGG_sodD-7" value="零售云账号全部在一个租户下" style="text;html=1;strokeColor=none;fillColor=none;align=center;verticalAlign=middle;whiteSpace=wrap;rounded=0;" vertex="1" parent="U0HshNzUBzlzaWFqLwYB-1">
          <mxGeometry x="126.5" y="410" width="93" height="20" as="geometry" />
        </mxCell>
        <mxCell id="uL12IbZPGIwRWGG_sodD-8" value="独立账号租户&lt;br&gt;例如九色鹿场景" style="text;html=1;strokeColor=none;fillColor=none;align=center;verticalAlign=middle;whiteSpace=wrap;rounded=0;" vertex="1" parent="U0HshNzUBzlzaWFqLwYB-1">
          <mxGeometry x="326" y="410" width="97" height="20" as="geometry" />
        </mxCell>
        <mxCell id="uL12IbZPGIwRWGG_sodD-9" value="开发者账号全在一个租户下" style="text;html=1;strokeColor=none;fillColor=none;align=center;verticalAlign=middle;whiteSpace=wrap;rounded=0;" vertex="1" parent="U0HshNzUBzlzaWFqLwYB-1">
          <mxGeometry x="543" y="410" width="80" height="20" as="geometry" />
        </mxCell>
      </root>
    </mxGraphModel>
  </diagram>
</mxfile>
